<svg xmlns="http://www.w3.org/2000/svg" version="1.1" xmlns:xlink="http://www.w3.org/1999/xlink" xmlns:svgjs="http://svgjs.dev/svgjs" width="1000" height="1000" viewBox="0 0 1000 1000"><rect width="1000" height="1000" fill="#000000"></rect><g transform="matrix(0.7,0,0,0.7,149.57575800319313,394.2427079823895)"><svg viewBox="0 0 396 120" data-background-color="#000000" preserveAspectRatio="xMidYMid meet" height="303" width="1000" xmlns="http://www.w3.org/2000/svg" xmlns:xlink="http://www.w3.org/1999/xlink"><g id="tight-bounds" transform="matrix(1,0,0,1,0.24000024180642754,-0.16560564774511022)"><svg viewBox="0 0 395.5199999999999 120.33121129549019" height="120.33121129549019" width="395.5199999999999"><g><svg viewBox="0 0 660.672481761841 200.99999999999997" height="120.33121129549019" width="395.5199999999999"><g><rect width="8.31539385974026" height="200.99999999999997" x="245.13449569430858" y="0" fill="#ffffff" opacity="1" stroke-width="0" stroke="transparent" fill-opacity="1" class="rect-o-0" data-fill-palette-color="primary" rx="1%" id="o-0" data-palette-color="#ffffff"></rect></g><g transform="matrix(1,0,0,1,275.2179363072956,0.4999999999999858)"><svg viewBox="0 0 385.45454545454544 200" height="200" width="385.45454545454544"><g id="textblocktransform"><svg viewBox="0 0 385.45454545454544 200" height="200" width="385.45454545454544" id="textblock"><g><svg viewBox="0 0 385.45454545454544 200" height="200" width="385.45454545454544"><g transform="matrix(1,0,0,1,0,0)"><svg width="385.45454545454544" viewBox="3.1500000953674316 -34.900001525878906 148.40000915527344 74" height="200" data-palette-color="#ffffff"><svg></svg><svg></svg><g class="undefined-text-0" data-fill-palette-color="primary" id="text-0"><path xmlns="http://www.w3.org/2000/svg" d="M3.15 0v-34.3h11c4.267 0 7.583 1.417 9.95 4.25 2.367 2.833 3.55 6.967 3.55 12.4v0c0 5.767-1.183 10.15-3.55 13.15-2.367 3-5.683 4.5-9.95 4.5v0zM8.9-5.1h4.7c2.567 0 4.567-0.96 6-2.88 1.433-1.913 2.15-4.72 2.15-8.42v0-2.5c0-3.367-0.717-5.927-2.15-7.68-1.433-1.747-3.433-2.62-6-2.62v0h-4.7zM44.4 0.6c-3.667 0-6.517-0.983-8.55-2.95-2.033-1.967-3.05-4.817-3.05-8.55v0-23.4h5.7v23.35c0 2.1 0.517 3.717 1.55 4.85 1.033 1.133 2.483 1.7 4.35 1.7v0c1.867 0 3.317-0.567 4.35-1.7 1.033-1.133 1.55-2.75 1.55-4.85v0-23.35h5.75v23.4c0 3.733-1.023 6.583-3.07 8.55-2.053 1.967-4.913 2.95-8.58 2.95zM72.65 0.6c-2.167 0-4.14-0.383-5.92-1.15-1.787-0.767-3.203-1.943-4.25-3.53-1.053-1.58-1.58-3.537-1.58-5.87v0l0.05-1.05h5.9l-0.05 0.9c0 1.767 0.54 3.157 1.62 4.17 1.087 1.02 2.53 1.53 4.33 1.53v0c1.967 0 3.443-0.427 4.43-1.28 0.98-0.847 1.47-1.953 1.47-3.32v0c0-1.167-0.317-2.127-0.95-2.88-0.633-0.747-1.407-1.33-2.32-1.75-0.92-0.413-2.213-0.903-3.88-1.47v0c-2.1-0.667-3.807-1.343-5.12-2.03-1.32-0.68-2.447-1.687-3.38-3.02-0.933-1.333-1.4-3.1-1.4-5.3v0c0-3.033 1.067-5.367 3.2-7 2.133-1.633 4.817-2.45 8.05-2.45v0c3.233 0 5.877 0.823 7.93 2.47 2.047 1.653 3.07 4.147 3.07 7.48v0 0.6h-5.85v-0.55c0-1.533-0.467-2.75-1.4-3.65-0.933-0.9-2.183-1.35-3.75-1.35v0c-1.633 0-2.933 0.367-3.9 1.1-0.967 0.733-1.45 1.717-1.45 2.95v0c0 1 0.3 1.823 0.9 2.47 0.6 0.653 1.35 1.18 2.25 1.58 0.9 0.4 2.133 0.85 3.7 1.35v0c2.167 0.667 3.927 1.333 5.28 2 1.347 0.667 2.503 1.673 3.47 3.02 0.967 1.353 1.45 3.113 1.45 5.28v0c0 3.733-1.057 6.457-3.17 8.17-2.12 1.72-5.03 2.58-8.73 2.58zM86.55 0l11-34.3h6.8l11 34.3h-5.9l-2.2-7.05h-13l-2.15 7.05zM95.85-12.2h9.8l-3.85-12.75c-0.333-0.967-0.65-2.417-0.95-4.35v0h-0.2c-0.3 2-0.6 3.45-0.9 4.35v0zM118.55 0v-34.3h5.05l11.3 19.8c0.4 0.633 0.983 1.867 1.75 3.7v0l0.15-0.15-0.05-3.4v-19.95h5.1v34.3h-5l-11.4-19.9c-0.333-0.6-0.917-1.833-1.75-3.7v0l-0.2 0.15c0.1 1.6 0.15 2.733 0.15 3.4v0 20.05z" fill="#ffffff" fill-rule="nonzero" stroke="none" stroke-width="1" stroke-linecap="butt" stroke-linejoin="miter" stroke-miterlimit="10" stroke-dasharray="" stroke-dashoffset="0" font-family="none" font-weight="none" font-size="none" text-anchor="none" style="mix-blend-mode: normal" data-fill-palette-color="primary" opacity="1"></path><path xmlns="http://www.w3.org/2000/svg" d="M3.15 38.5v-34.3h11c4.267 0 7.583 1.417 9.95 4.25 2.367 2.833 3.55 6.967 3.55 12.4v0c0 5.767-1.183 10.15-3.55 13.15-2.367 3-5.683 4.5-9.95 4.5v0zM8.9 33.4h4.7c2.567 0 4.567-0.96 6-2.88 1.433-1.913 2.15-4.72 2.15-8.42v0-2.5c0-3.367-0.717-5.927-2.15-7.68-1.433-1.747-3.433-2.62-6-2.62v0h-4.7zM39.35 39.1c-2.967 0-5.25-0.75-6.85-2.25-1.6-1.5-2.4-3.667-2.4-6.5v0-2.5h5.7v2.25c0 1.3 0.3 2.29 0.9 2.97 0.6 0.687 1.483 1.03 2.65 1.03v0c1.133 0 1.993-0.343 2.58-1.03 0.58-0.68 0.87-1.67 0.87-2.97v0-25.9h5.75v26.15c0 2.833-0.8 5-2.4 6.5-1.6 1.5-3.867 2.25-6.8 2.25zM67.55 39.1c-4.467 0-7.917-1.483-10.35-4.45-2.433-2.967-3.65-7.4-3.65-13.3v0c0-5.9 1.217-10.333 3.65-13.3 2.433-2.967 5.883-4.45 10.35-4.45v0c4.467 0 7.917 1.483 10.35 4.45 2.433 2.967 3.65 7.4 3.65 13.3v0c0 5.9-1.217 10.333-3.65 13.3-2.433 2.967-5.883 4.45-10.35 4.45zM67.55 34.1c2.6 0 4.6-0.993 6-2.98 1.4-1.98 2.1-4.82 2.1-8.52v0-2.5c0-3.7-0.7-6.543-2.1-8.53-1.4-1.98-3.4-2.97-6-2.97v0c-2.6 0-4.6 0.99-6 2.97-1.4 1.987-2.1 4.83-2.1 8.53v0 2.5c0 3.7 0.7 6.54 2.1 8.52 1.4 1.987 3.4 2.98 6 2.98zM86.65 38.5v-34.3h5.75v17.75l12.95-17.75h6.35l-10.2 13.9 10.55 20.4h-6.45l-7.8-15.8-5.4 6.4v9.4zM115.2 38.5v-34.3h5.7v34.3zM139.2 39.1c-4.433 0-7.81-1.477-10.13-4.43-2.313-2.947-3.47-7.387-3.47-13.32v0c0-5.933 1.157-10.377 3.47-13.33 2.32-2.947 5.697-4.42 10.13-4.42v0c3.733 0 6.727 1.107 8.98 3.32 2.247 2.22 3.37 5.53 3.37 9.93v0h-5.85c0-2.7-0.583-4.75-1.75-6.15-1.167-1.4-2.75-2.1-4.75-2.1v0c-2.567 0-4.49 0.983-5.77 2.95-1.287 1.967-1.93 4.817-1.93 8.55v0 2.5c0 3.733 0.65 6.583 1.95 8.55 1.3 1.967 3.25 2.95 5.85 2.95v0c2.067 0 3.693-0.683 4.88-2.05 1.18-1.367 1.77-3.4 1.77-6.1v0h5.6c0 4.333-1.123 7.607-3.37 9.82-2.253 2.22-5.247 3.33-8.98 3.33z" fill="#ffffff" fill-rule="nonzero" stroke="none" stroke-width="1" stroke-linecap="butt" stroke-linejoin="miter" stroke-miterlimit="10" stroke-dasharray="" stroke-dashoffset="0" font-family="none" font-weight="none" font-size="none" text-anchor="none" style="mix-blend-mode: normal" data-fill-palette-color="primary" opacity="1"></path></g></svg></g></svg></g></svg></g></svg></g><g transform="matrix(1,0,0,1,0,0.4999999999999858)"><svg viewBox="0 0 223.36644894106183 200" height="200" width="223.36644894106183"><g><svg xmlns="http://www.w3.org/2000/svg" xmlns:xlink="http://www.w3.org/1999/xlink" version="1.1" x="0" y="0" viewBox="5.4217352867126465 14.52245807647705 89.54153442382812 80.174560546875" enable-background="new 0 0 100 100" xml:space="preserve" height="200" width="223.36644894106183" class="icon-icon-0" data-fill-palette-color="accent" id="icon-0"><g fill="#609c44" data-fill-palette-color="accent"><path d="M63.313 50.225c0.506 0 0.921 0.397 0.949 0.896l-0.988 14.532H36.986l-0.988-14.532c0.028-0.499 0.443-0.896 0.949-0.896H63.313M63.313 47.947H36.948c-1.783 0-3.229 1.446-3.229 3.229l1.139 16.756h30.545l1.139-16.756C66.542 49.392 65.096 47.947 63.313 47.947L63.313 47.947z" fill="#ffffff" data-fill-palette-color="accent"></path><path fill-rule="evenodd" clip-rule="evenodd" d="M64.416 72.262H35.827c-0.535 0-0.969-0.434-0.969-0.969V69.2h30.527v2.093C65.385 71.828 64.951 72.262 64.416 72.262z" fill="#ffffff" data-fill-palette-color="accent"></path><circle cx="50.121" cy="57.939" r="1.9" fill="#ffffff" data-fill-palette-color="accent"></circle><circle cx="82.075" cy="21.12" r="6.4" fill="#ffffff" data-fill-palette-color="accent"></circle><path d="M31.199 42.809l-1.035-9.784c-0.215-1.722-1.678-3.015-3.414-3.017L9.798 29.989c-1.782-0.002-3.271 1.356-3.433 3.131-0.002-1.173-0.64 9.459-0.942 19.208-0.004 0.137 0.001 0.271 0.022 0.406 0.525 3.46 1.873 7.908 8.924 10.173 4.217 1.354 5.114-1.988 3.496-3.98-1.588-1.954-3.007-3.503-3.963-4.901-0.893-1.306-0.721-5.024-0.691-5.477 1.237-0.722 3.369-1.602 4.318-1.983C21.543 44.952 26.18 43.709 31.199 42.809z" fill="#ffffff" data-fill-palette-color="accent"></path><path d="M94.796 58.374c-0.598 1.035-1.391 2.038-2.45 2.959-0.38 3.297-4.574 6.824-11.388 9.528-8.197 3.253-19.156 5.044-30.859 5.044-11.703 0-22.662-1.791-30.859-5.044C12.301 68.107 8.076 64.5 7.832 61.152c-1.024-0.931-1.786-1.942-2.359-2.981-0.274 0.727 1.45 26.74 1.45 26.74h5.355l-0.144-14.388c4.697 2.896 11.437 5.219 19.417 6.649l1.23 17.525h5.287l1.355-16.45c3.424 0.33 6.996 0.509 10.676 0.509 3.549 0 6.997-0.168 10.309-0.475l1.142 16.416h5.287l1.44-17.459c8.144-1.425 15.02-3.776 19.79-6.718l-0.126 14.146h5.355C93.297 84.666 95.026 59.035 94.796 58.374z" fill="#ffffff" data-fill-palette-color="accent"></path><path d="M69.186 42.809l1.035-9.784c0.215-1.722 1.678-3.015 3.414-3.017l16.952-0.018c1.782-0.002 3.271 1.356 3.433 3.131 0.002-1.173 0.64 9.459 0.942 19.208 0.004 0.137-0.001 0.271-0.022 0.406-0.525 3.46-1.873 7.908-8.924 10.173-4.217 1.354-5.114-1.988-3.496-3.98 1.588-1.954 3.007-3.503 3.963-4.901 0.893-1.306 0.721-5.024 0.691-5.477-1.237-0.722-3.369-1.602-4.318-1.983C78.842 44.952 74.205 43.709 69.186 42.809z" fill="#ffffff" data-fill-palette-color="accent"></path><path d="M15.209 51.762c1.138-0.587 2.382-1.152 3.731-1.687 8.29-3.29 19.356-5.102 31.159-5.102s22.869 1.812 31.159 5.102c1.423 0.565 2.731 1.161 3.919 1.784v-2.278c-8.273-4.052-20.912-6.643-35.078-6.643-14.058 0-26.613 2.551-34.89 6.55V51.762z" fill="#ffffff" data-fill-palette-color="accent"></path><path d="M15.768 15.02c0.565-0.242 1.174-0.403 1.817-0.467 3.407-0.338 6.443 2.168 6.784 5.6 0.341 3.432-2.143 6.49-5.55 6.828-2.162 0.215-4.173-0.721-5.442-2.31-1.722 1.447-3.908 6.172-7.361-0.206C10.428 28.001 10.274 16.932 15.768 15.02z" fill="#ffffff" data-fill-palette-color="accent"></path><path d="M42.892 31.367l-11.344-5.559v-1.815l11.344-6.296v3.046l-7.814 4.024 7.814 3.567V31.367z" fill="#ffffff" data-fill-palette-color="accent"></path><path d="M54.851 15.387l-6.225 18.557h-3.164l6.225-18.557H54.851z" fill="#ffffff" data-fill-palette-color="accent"></path><path d="M57.842 28.333l7.814-3.567-7.814-4.024v-3.046l11.344 6.296v1.815l-11.344 5.559V28.333z" fill="#ffffff" data-fill-palette-color="accent"></path></g></svg></g></svg></g></svg></g><defs></defs></svg><rect width="395.5199999999999" height="120.33121129549019" fill="none" stroke="none" visibility="hidden"></rect></g></svg></g></svg>